<?xml version="1.0" encoding="UTF-8" standalone="no"?>
<!-- Created with Inkscape (http://www.inkscape.org/) -->

<svg
   xmlns:dc="http://purl.org/dc/elements/1.1/"
   xmlns:cc="http://creativecommons.org/ns#"
   xmlns:rdf="http://www.w3.org/1999/02/22-rdf-syntax-ns#"
   xmlns:svg="http://www.w3.org/2000/svg"
   xmlns="http://www.w3.org/2000/svg"
   xmlns:sodipodi="http://sodipodi.sourceforge.net/DTD/sodipodi-0.dtd"
   xmlns:inkscape="http://www.inkscape.org/namespaces/inkscape"
   width="200"
   height="300"
   viewBox="0 0 52.916666 79.375002"
   version="1.1"
   id="svg8"
   inkscape:version="0.92.3 (2405546, 2018-03-11)"
   sodipodi:docname="temp.svg">
  <defs
     id="defs2" />
  <sodipodi:namedview
     id="base"
     pagecolor="#ffffff"
     bordercolor="#666666"
     borderopacity="1.0"
     inkscape:pageopacity="0.0"
     inkscape:pageshadow="2"
     inkscape:zoom="2"
     inkscape:cx="72.528695"
     inkscape:cy="154.97382"
     inkscape:document-units="mm"
     inkscape:current-layer="layer1"
     showgrid="false"
     units="px"
     showguides="true"
     inkscape:guide-bbox="true"
     inkscape:window-width="1920"
     inkscape:window-height="1017"
     inkscape:window-x="-8"
     inkscape:window-y="-8"
     inkscape:window-maximized="1" />
  <metadata
     id="metadata5">
    <rdf:RDF>
      <cc:Work
         rdf:about="">
        <dc:format>image/svg+xml</dc:format>
        <dc:type
           rdf:resource="http://purl.org/dc/dcmitype/StillImage" />
        <dc:title></dc:title>
      </cc:Work>
    </rdf:RDF>
  </metadata>
  <g
     inkscape:label="Layer 1"
     inkscape:groupmode="layer"
     id="layer1"
     transform="translate(0,-217.62498)">
    <flowRoot
       xml:space="preserve"
       id="flowRoot1024"
       style="fill:black;fill-opacity:1;stroke:none;font-family:sans-serif;font-style:normal;font-weight:normal;font-size:40px;line-height:1.25;letter-spacing:0px;word-spacing:0px"><flowRegion
         id="flowRegion1026"><rect
           id="rect1028"
           width="161.25"
           height="58.75"
           x="22.5"
           y="213.25" /></flowRegion><flowPara
         id="flowPara1030"></flowPara></flowRoot>    <g
       id="g1141">
      <path
         id="rect826"
         transform="matrix(0.26458333,0,0,0.26458333,0,217.62498)"
         d="M 2 1.9746094 L 2 11.996094 L 2 52.03125 L 12.021484 52.03125 L 12.021484 11.996094 L 52.056641 11.996094 L 52.056641 1.9746094 L 12.021484 1.9746094 L 2 1.9746094 z "
         style="fill:#000000;fill-opacity:1;stroke:none;stroke-width:1.00352216" />
      <path
         id="rect826-8"
         transform="matrix(0.26458333,0,0,0.26458333,0,217.62498)"
         d="M 147.96484 1.9746094 L 147.96484 11.996094 L 188 11.996094 L 188 52.03125 L 198.02148 52.03125 L 198.02148 11.996094 L 198.02148 1.9746094 L 188 1.9746094 L 147.96484 1.9746094 z "
         style="fill:#000000;fill-opacity:1;stroke:none;stroke-width:1.00352216" />
      <path
         id="rect826-9"
         transform="matrix(0.26458333,0,0,0.26458333,0,217.62498)"
         d="M 2 247.96875 L 2 288.00391 L 2 298.02539 L 12.021484 298.02539 L 52.056641 298.02539 L 52.056641 288.00391 L 12.021484 288.00391 L 12.021484 247.96875 L 2 247.96875 z "
         style="fill:#000000;fill-opacity:1;stroke:none;stroke-width:1.00352216" />
      <path
         id="rect826-8-8"
         transform="matrix(0.26458333,0,0,0.26458333,0,217.62498)"
         d="M 188 247.96875 L 188 288.00391 L 147.96484 288.00391 L 147.96484 298.02539 L 188 298.02539 L 198.02148 298.02539 L 198.02148 288.00391 L 198.02148 247.96875 L 188 247.96875 z "
         style="fill:#000000;fill-opacity:1;stroke:none;stroke-width:1.00352216" />
      <g
         id="flowRoot1014"
         style="font-style:normal;font-weight:normal;font-size:40px;line-height:1.25;font-family:sans-serif;letter-spacing:0px;word-spacing:0px;fill:#000000;fill-opacity:1;stroke:none"
         transform="matrix(0.26458333,0,0,0.26458333,0.42994791,221.32915)"
         aria-label="NO
">
        <path
           id="path1040"
           style="font-style:normal;font-variant:normal;font-weight:bold;font-stretch:normal;font-size:58.66666794px;line-height:40px;font-family:Bahnschrift;-inkscape-font-specification:'Bahnschrift Bold';text-align:center;text-anchor:middle"
           d="m 63.927083,79.09375 h 9.596354 l 15.497396,31.91146 -0.6875,0.74479 V 79.09375 h 7.505209 v 41.6224 h -9.653646 l -15.440105,-31.424483 0.6875,-0.744792 v 32.169275 h -7.505208 z"
           inkscape:connector-curvature="0" />
        <path
           id="path1042"
           style="font-style:normal;font-variant:normal;font-weight:bold;font-stretch:normal;font-size:58.66666794px;line-height:40px;font-family:Bahnschrift;-inkscape-font-specification:'Bahnschrift Bold';text-align:center;text-anchor:middle"
           d="m 119.41406,121.17448 q -4.52604,0 -7.99218,-1.89062 -3.4375,-1.91928 -5.32813,-5.38542 -1.89062,-3.49479 -1.89062,-8.07813 V 94.01823 q 0,-4.583334 1.89062,-8.04948 1.89063,-3.494792 5.32813,-5.385417 3.46614,-1.91927 7.99218,-1.91927 4.52605,0 7.96355,1.91927 3.46614,1.890625 5.35677,5.385417 1.89062,3.466146 1.89062,8.04948 v 11.80208 q 0,4.58334 -1.89062,8.07813 -1.89063,3.46614 -5.35677,5.38542 -3.4375,1.89062 -7.96355,1.89062 z m 0,-7.84896 q 2.1198,0 3.72396,-0.88802 1.60417,-0.91667 2.46354,-2.57812 0.88802,-1.66146 0.88802,-3.83855 V 93.817709 q 0,-2.177084 -0.88802,-3.838542 -0.85937,-1.661458 -2.46354,-2.549479 -1.60416,-0.916667 -3.72396,-0.916667 -2.11979,0 -3.72396,0.916667 -1.60416,0.888021 -2.49218,2.549479 -0.85938,1.661458 -0.85938,3.838542 v 12.203121 q 0,2.17709 0.85938,3.83855 0.88802,1.66145 2.49218,2.57812 1.60417,0.88802 3.72396,0.88802 z"
           inkscape:connector-curvature="0" />
      </g>
      <g
         id="flowRoot1032"
         style="font-style:normal;font-weight:normal;font-size:40px;line-height:1.25;font-family:sans-serif;letter-spacing:0px;word-spacing:0px;fill:#000000;fill-opacity:1;stroke:none"
         transform="matrix(0.26458333,0,0,0.26458333,-2.38125,201.71691)"
         aria-label="IMAGE">
        <path
           id="path1045"
           style="font-style:normal;font-variant:normal;font-weight:bold;font-stretch:normal;font-size:58.66667175px;font-family:Bahnschrift;-inkscape-font-specification:'Bahnschrift Bold'"
           d="m 35.145834,267.16146 h -8.135417 v -41.65104 h 8.135417 z"
           inkscape:connector-curvature="0" />
        <path
           id="path1047"
           style="font-style:normal;font-variant:normal;font-weight:bold;font-stretch:normal;font-size:58.66667175px;font-family:Bahnschrift;-inkscape-font-specification:'Bahnschrift Bold'"
           d="m 69.950525,225.51042 h 10.341147 v 41.65104 h -7.132813 v -32.34115 l 0.286458,1.83334 -7.963542,25.86719 h -6.932292 l -7.963543,-25.29428 0.286459,-2.40625 v 32.34115 h -7.132813 v -41.65104 h 10.341146 l 7.934897,28.07292 z"
           inkscape:connector-curvature="0" />
        <path
           id="path1049"
           style="font-style:normal;font-variant:normal;font-weight:bold;font-stretch:normal;font-size:58.66667175px;font-family:Bahnschrift;-inkscape-font-specification:'Bahnschrift Bold'"
           d="m 101.37501,225.51042 h 4.98437 l 15.92709,41.65104 h -8.45052 l -9.96875,-28.44531 -9.968754,28.44531 h -8.450522 z m -8.278647,27.41406 h 21.914067 v 7.5625 H 93.096363 Z"
           inkscape:connector-curvature="0" />
        <path
           id="path1051"
           style="font-style:normal;font-variant:normal;font-weight:bold;font-stretch:normal;font-size:58.66667175px;font-family:Bahnschrift;-inkscape-font-specification:'Bahnschrift Bold'"
           d="m 156.31772,243.8724 v 8.13542 q 0,4.64062 -1.89062,8.1927 -1.86198,3.52344 -5.29948,5.47136 -3.4375,1.91927 -7.96355,1.91927 -4.55468,0 -8.04948,-1.80469 -3.46614,-1.83333 -5.38541,-5.15625 -1.89063,-3.32291 -1.89063,-7.70573 v -12.28906 q 0,-4.64063 1.86198,-8.16406 1.89063,-3.52344 5.32813,-5.44271 3.4375,-1.94792 7.96354,-1.94792 3.72396,0 6.875,1.54688 3.15104,1.51822 5.24219,4.32552 2.11979,2.80729 2.86458,6.5026 v 0 h -8.47917 v 0 q -0.42968,-1.31771 -1.43229,-2.26302 -0.97396,-0.97396 -2.32031,-1.46094 -1.31771,-0.51562 -2.75,-0.51562 -2.09115,0 -3.69531,0.91666 -1.57552,0.91667 -2.46355,2.60678 -0.85937,1.6901 -0.85937,3.89583 v 12.28906 q 0,1.94792 0.88802,3.4375 0.88802,1.48959 2.52083,2.29167 1.63282,0.80208 3.78125,0.80208 2.1198,0 3.69532,-0.85937 1.60416,-0.88802 2.46354,-2.54948 0.85937,-1.66146 0.85937,-3.92448 v -0.6875 h -6.30208 v -7.5625 z"
           inkscape:connector-curvature="0" />
        <path
           id="path1053"
           style="font-style:normal;font-variant:normal;font-weight:bold;font-stretch:normal;font-size:58.66667175px;font-family:Bahnschrift;-inkscape-font-specification:'Bahnschrift Bold'"
           d="m 164.62501,225.51042 h 7.84895 v 41.65104 h -7.84895 z m 2.83593,34.08854 h 25.06511 v 7.5625 h -25.06511 z m 0,-16.90104 h 21.91407 v 7.5625 h -21.91407 z m 0,-17.1875 h 25.06511 v 7.5625 h -25.06511 z"
           inkscape:connector-curvature="0" />
      </g>
    </g>
  </g>
  <g
     inkscape:groupmode="layer"
     id="layer2"
     inkscape:label="Layer2" />
</svg>
